# xmcd
#
# Track frame offsets: 
#        150
#        12891
#        23224
#        33477
#        44836
#        54899
#        66523
#        78839
#
# Disc length: 1213 seconds
#
# Revision: 2
# Processed by: cddbd v1.5.2PL0 Copyright (c) Steve Scherf et al.
# Submitted via: ExactAudioCopy v1.0b3
#
DISCID=6204bb08
DTITLE=Reed, Jerry - East Bound And Down
DYEAR=1977
DGENRE=Country
TTITLE0=East Bound And Down
TTITLE1=The Bandit
TTITLE2=The Legend
TTITLE3=Framed
TTITLE4=You Took All The Rambling Out Of Me
TTITLE5=Rainbow Ride
TTITLE6=Just To Satisfy You
TTITLE7=Don't Think Twice It's Alright
EXTD=
EXTT0=
EXTT1=
EXTT2=
EXTT3=
EXTT4=
EXTT5=
EXTT6=
EXTT7=
PLAYORDER=
